<svg width="164" height="164" viewBox="0 0 164 164" fill="none" xmlns="http://www.w3.org/2000/svg">
<g clip-path="url(#clip0_5_2)">
<path d="M82 155.8C122.759 155.8 155.8 122.759 155.8 82C155.8 41.2414 122.759 8.20001 82 8.20001C41.2414 8.20001 8.2 41.2414 8.2 82C8.2 122.759 41.2414 155.8 82 155.8Z" fill="#ACACAC"/>
<path d="M82 164C127.287 164 164 127.287 164 82C164 36.7129 127.287 0 82 0C36.7129 0 0 36.7129 0 82C0 127.287 36.7129 164 82 164ZM82 147.6C45.7701 147.6 16.4 118.23 16.4 82C16.4 45.7701 45.7701 16.4 82 16.4C118.23 16.4 147.6 45.7701 147.6 82C147.6 118.23 118.23 147.6 82 147.6Z" fill="#202020"/>
<path d="M62.32 62.32C62.32 42.64 101.68 37.72 100.04 59.04C100.04 73.8 73.8 80.36 73.8 96.76V108.24H90.2V101.68C90.2 86.92 118.08 82 118.08 57.4C114.8 21.32 44.28 21.32 44.28 62.32H62.32V62.32ZM73.8 114.8H90.2V131.2H73.8V114.8V114.8Z" fill="#202020"/>
</g>
<defs>
<clipPath id="clip0_5_2">
<rect width="164" height="164" fill="white"/>
</clipPath>
</defs>
</svg>
